<?xml version="1.0" encoding="utf-8"?>
<!-- Generator: Adobe Illustrator 27.5.0, SVG Export Plug-In . SVG Version: 6.00 Build 0)  -->
<svg version="1.1" xmlns="http://www.w3.org/2000/svg" xmlns:xlink="http://www.w3.org/1999/xlink" x="0px" y="0px"
	 viewBox="0 0 750 500" style="enable-background:new 0 0 750 500;" xml:space="preserve">
<g id="BACKGROUND">
	<rect style="fill:#526041;" width="750" height="500"/>
</g>
<g id="OBJECTS">
	<g>
		<defs>
			<rect id="SVGID_1_" width="750" height="500"/>
		</defs>
		<clipPath id="SVGID_00000042696549048463959080000018243702316249639085_">
			<use xlink:href="#SVGID_1_"  style="overflow:visible;"/>
		</clipPath>
		<path style="clip-path:url(#SVGID_00000042696549048463959080000018243702316249639085_);fill:#404A32;" d="M462.538,65.302
			c-82.765,4.993-164.572-42.509-245.803-25.881C124.552,58.292,56.475,158.345,1.867,162.056
			c-29.059,1.975-55.179-19.548-69.715-44.787C-92.888,73.787-92.086,20.271-85.295-29.443c1.241-9.083,2.896-18.675,8.926-25.58
			c31.705-36.3,283.412,3.69,358.877,10.412c172.283,15.346,222.623-10.043,294.037-7.577c38.321,1.323,55.991,6.693,29.088,41.113
			C571.392,32.731,518.234,61.941,462.538,65.302z"/>
		<path style="clip-path:url(#SVGID_00000042696549048463959080000018243702316249639085_);fill:#404A32;" d="M640.46,364.416
			c-55.779,18.81-101.149,69.843-160.012,70.343C377.934,435.63,225.56,253.205-0.837,355.621
			c-34.271,15.503-38.72,24.19-39.614,124.14c-0.676,75.594,91.508,33.844,130.853,28.976c56.905-7.042,68.743,16.856,218.701,21.09
			c408.536,11.535,406.503,13.076,428.267,3.363c39.019-17.414,55.75-127.714,25.277-157.563
			C735.763,349.294,672.276,353.687,640.46,364.416z"/>
		<path style="clip-path:url(#SVGID_00000042696549048463959080000018243702316249639085_);fill:#718458;" d="M60.168,48.624
			c33.659,14.252,38.678,60.807,65.447,85.697c51.652,48.025,172.572-1.366,155.7-72.094
			c-10.488-43.969-78.048-66.525-67.808-114.748c4.052-19.08,34.312-56.609-21.936-62.871
			c-46.013-5.122-167.812-9.857-208.508,12.005C-41.906-89.975-57-63.247-65.51-36.21c-7.76,24.656-27.187,112.118,9.236,120.868
			C-15.645,94.419,12.284,28.349,60.168,48.624z"/>
		<path style="clip-path:url(#SVGID_00000042696549048463959080000018243702316249639085_);fill:#5C6C48;" d="M726.411,445.532
			c-92.958,7.91-180.629,61.261-273.49,52.287c-114.009-11.017-201.615-112.457-314.388-132.493
			c-47.114-8.37-115.124-2.14-147.371,30.594c-35.901,36.443-24.602,101.056-15.729,110.797c5.301,5.819,14.145,6.19,22.009,6.527
			c45.203,1.941,88.83,16.278,133.283,24.708c153.933,29.194,312.853-12.923,468.964,0.374c37.353,3.182,75.401,9.492,111.936,1.09
			C796.751,519.841,809.477,438.463,726.411,445.532z"/>
		<path style="clip-path:url(#SVGID_00000042696549048463959080000018243702316249639085_);fill:#404A32;" d="M156.578,446.957
			c-43.575-16.602-91.724-14.583-138.285-12.05c-13.275,0.722-27.129,1.635-38.576,8.397
			C-49.396,460.5-65.36,522.325-34.637,553.664c38.12,38.885,153.787,26.419,204.468,21.913
			c27.154-2.414,71.93-14.769,67.388-51.765C233.192,491.006,184.486,457.591,156.578,446.957z"/>
		<path style="clip-path:url(#SVGID_00000042696549048463959080000018243702316249639085_);fill:#5C6C48;" d="M798.378,365.923
			c-60.126,24.667-129.982-27.779-99.577-93.503c13.108-28.334,45.421-46.503,75.434-54.011c16.279-4.072,59.708,10.65,72.24,22.333
			c23.586,21.987,15.487,69.775-3.651,94.4C831.636,349.535,815.244,359.004,798.378,365.923z"/>
		<path style="opacity:0.5;clip-path:url(#SVGID_00000042696549048463959080000018243702316249639085_);fill:#75895C;" d="
			M57.223,533.815c-2.882-7.014-0.896-9.231,11.019-50.24c-4.495-4.837-13.05-1.51-18.793-4.769
			c-8.931-5.068-5.914-25.352-27.963-27.032c8.464-5.137,19.822-2.994,27.94,2.672c8.119,5.666,13.675,14.226,18.86,22.661
			c5.501-11.148-0.05-26.358-11.439-31.341c-6.699-2.931-14.809-2.714-20.547-7.246c-9.142-7.221-12.361-27.935-8.639-42.867
			c2.909,25.733,46.597,32.109,45.193,58.956c9.869-23.351-5.67-40.082-11.198-49.889c-23.884-42.369,10.826-64.508,16.658-93.645
			c14.125,27.987-5.704,60.004-1.923,89.723c1.235,9.704,4.916,19.226,4.03,28.968c4.017-11.802,11.207-22.488,13.857-34.67
			c3.493-16.061-1.169-33.587,5.078-48.79c5.676-13.814,19.361-23.046,25.308-36.745c5.045,27.905-24.633,49.62-25.092,77.176
			c11.04-22.186,22.997-45.427,43.779-58.926c16.961-11.016,39.03-14.975,51.811-30.649c-12.789,38.717-53.74,42.925-92.223,92.812
			c13.132-6.082,22.51-18.461,35.593-24.648c16.644-7.871,38.767-5.646,50.714-19.656c-32.107,47.316-78.785,49.154-86.655,53.516
			c-10.558,5.851-11.043,20.648-17.139,31.067c13.288-14.042,27.778-28.737,46.659-32.896c17.075-3.761,37.206,1.139,50.608-10.089
			c-38.01,42.709-55.937,31.137-80.441,38.414c-11.281,3.35-22.358,12.63-21.841,24.386c25.823-38.466,62.177-4.5,84.163-21.9
			c-42.848,33.641-49.592,18.048-71.732,21.335c-9.076,1.348-18.485,9.038-16.698,18.038c22.134-25.77,43.341,8.408,60.525-6.042
			c-25.225,19.379-32.53,7.457-48.275,7.109c-7.762-0.171-16.817,6.107-14.683,13.571c5.294-5.532,14.214-7.201,21.15-3.957
			c7.155,3.346,13.977,11.435,21.159,8.149c-8.343,1.231-14.021,10.947-22.453,10.766c-9.908-0.213-18.493-18.969-23.608-6.115
			C66.107,500.767,66.952,516.815,57.223,533.815z"/>
		<path style="opacity:0.75;clip-path:url(#SVGID_00000042696549048463959080000018243702316249639085_);fill:#839866;" d="
			M688.903,43.396c-6.116-0.806-12.381-3.231-18.26-1.361c-6.956,2.212-11.486,9.963-18.727,10.887
			c-10.47,1.336-20.168-12.394-29.61-7.676c-11.032,5.512-59.286,32.515-21.053,47.22c27.262,10.485,49.422-31.689,66.12-32.554
			c12.55-0.65,25.402,11.023,36.421,4.98c5.373-2.947,8.202-9.402,13.719-12.07c8.061-3.899,17.236,1.871,26.115,3.031
			c23.515,3.073,37.285-29.191,17.55-18.63c-15.038,8.047-25.474-3.058-31.672-4.446C716.476,29.861,713.152,46.59,688.903,43.396z"
			/>
		<path style="opacity:0.75;clip-path:url(#SVGID_00000042696549048463959080000018243702316249639085_);fill:#839866;" d="
			M139.393-22.354c-2.816-6.497-4.462-13.993-9.913-18.513c-5.84-4.842-14.786-4.643-21.366-0.868
			C92.91-33.012,94.045-15.308,86.52-6.319C81.739-0.608,73.942,1.978,69.362,7.852c-7.94,10.183-2.123,26.443,8.977,33.041
			c23.311,13.855,51.673-4.771,74.851-8.209c6.162-0.914,31.356-1.03,31.776-17.581C185.501-5.952,148.3-1.807,139.393-22.354z"/>
		<path style="opacity:0.75;clip-path:url(#SVGID_00000042696549048463959080000018243702316249639085_);fill:#839866;" d="
			M500.092,401.957c-2.816-6.497-4.462-13.993-9.913-18.513c-5.84-4.842-14.786-4.643-21.367-0.868
			c-15.204,8.722-14.068,26.426-21.593,35.415c-4.781,5.711-12.578,8.298-17.158,14.171c-7.94,10.183-2.123,26.443,8.977,33.041
			c23.311,13.855,51.673-4.771,74.851-8.209c6.162-0.914,31.356-1.03,31.776-17.581C546.2,418.359,508.999,422.504,500.092,401.957z
			"/>
		<path style="opacity:0.75;clip-path:url(#SVGID_00000042696549048463959080000018243702316249639085_);fill:#839866;" d="
			M20.762,258.861c4.524,5.233,4.254,15.422-12.886,24.19c-7.9,4.041-14.213,3.895-17.961-8.615
			c-5.896-19.676-5.313-57.192,6.235-73.526c15.183-21.476,41.313-10.747,36.292,0.888c-1.43,3.314-5.19,4.798-8.146,6.87
			s-5.349,6.381-2.975,9.1c2.512,2.877,9.99,1.499,13.008,6.752c7.461,12.986-13.908,11.141-18.84,12.853
			c-4.455,1.547-7.695,6.328-6.308,11.322C10.688,254.118,17.427,255.004,20.762,258.861z"/>
		<path style="opacity:0.75;clip-path:url(#SVGID_00000042696549048463959080000018243702316249639085_);fill:#839866;" d="
			M307.016,529.048c-2.247,6.496-9.487,9.464-12.992,5.919c-5.533-5.594,3.443-17.793,3.178-25.645
			c-0.873-25.89-46.816-11.496-41.545-30.084c2.901-10.23,21.577-3.366,38.373,0.767c9.386,2.31,9.616-5.53,2.952-8.856
			c-10.758-5.369-26.351-3.4-32.247-13.878c-3.682-6.545-0.767-17.354,18.474-7.968c29.049,14.171,21.774-6.908,10.265-12.648
			c-5.562-2.774-11.952-4.106-16.709-8.107c-4.756-4.001-6.787-12.342-1.861-16.132c10.731-8.259,26.043,17.992,35.546,7.023
			c4.484-5.176,0.06-15.254,2.013-26.943c2.899-17.35,18.896-19.844,24.269-11.678c6.757,10.27-9.494,24.119-4.104,35.168
			c3.947,8.092,15.583,7.377,23.604,11.466c11.708,5.968,12.269,24.646-9.221,21.982c-3.309-0.41-18.019-3.496-20.73,3.682
			c-3.965,10.499,22.005,12.762,30.933,21.759c6.248,6.296,7.301,23.639-20.339,4.29c-3.248-2.273-6.526-4.845-10.445-5.44
			c-3.919-0.595-8.621,1.759-8.904,5.714c-0.377,5.284,7.621,13.691,15.591,16.697c2.255,0.85,18.319,4.137,14.719,13.332
			c-2.609,6.662-14.119,5.718-21.087,3.162c-5.272-1.934-11.536-11.308-16.111-6.015
			C305.646,512.391,309.525,521.795,307.016,529.048z"/>
	</g>
	<g>
		<defs>
			<rect id="SVGID_00000113337914604465624230000003716706674698375322_" width="750" height="500"/>
		</defs>
		<clipPath id="SVGID_00000072273301483819866610000011961830811338390973_">
			<use xlink:href="#SVGID_00000113337914604465624230000003716706674698375322_"  style="overflow:visible;"/>
		</clipPath>
		<g style="clip-path:url(#SVGID_00000072273301483819866610000011961830811338390973_);">
			<path style="fill:none;stroke:#89A16D;stroke-width:1.5;stroke-linecap:round;stroke-linejoin:round;stroke-miterlimit:10;" d="
				M613.681,257.982c-20.992-11.182-23.87-27.338-29.123-31.756c-2.166-1.821-10.478-4.872-12.009-14.911
				c5.756,3.263,9.289-1.002,20.693,5.578c18.422,10.629,16.867,17.126,21.574,28.44
				C616.085,248.384,627.899,265.556,613.681,257.982z"/>
			<path style="fill:none;stroke:#89A16D;stroke-width:1.5;stroke-linecap:round;stroke-linejoin:round;stroke-miterlimit:10;" d="
				M624.762,247.861c-0.813-9.077,0.787-11.053,3.55-17.936c3.601-8.973,5.241-21.51,14.302-27.584
				c5.655-3.791,13.253-4.141,18.425-8.568c2.015-1.725,4.626-5.277,8.026-4.489c-6.855,4.755-0.258,12.785-12.262,30.087
				c-6.356,9.161-14.494,16.427-18.15,22.985c-3.117,5.592-3.896,12.241-7.121,17.751
				C627.66,266.722,624.99,250.406,624.762,247.861z"/>
			<path style="fill:none;stroke:#89A16D;stroke-width:1.5;stroke-linecap:round;stroke-linejoin:round;stroke-miterlimit:10;" d="
				M596.782,274.629c-23.829-8.41-20.464-3.583-31.386-4.357c-7.23-0.512-13.648-5.342-17.586-11.427
				c5.407,0.169,10.842-0.608,15.985-2.287c17.938-5.856,12.706-5.352,27.224-1.95c6.198,1.453,16.918,0.868,26.496,11.137
				C629.518,278.617,613.456,280.514,596.782,274.629z"/>
			<path style="fill:none;stroke:#89A16D;stroke-width:1.5;stroke-linecap:round;stroke-linejoin:round;stroke-miterlimit:10;" d="
				M667.151,244.755c12.356-14.154,24.551-16.42,32.377-20.364c2.47-1.245,4.767-2.841,7.335-3.869
				c6.054-2.424,12.993-1.471,19.186-3.512c-10.532,10.469-8.417,11.26-13.816,17.787c-9.759,11.797-10.309,3.473-28.003,28.386
				C639.063,326.776,636.364,280.023,667.151,244.755z"/>
			<path style="fill:none;stroke:#89A16D;stroke-width:1.5;stroke-linecap:round;stroke-linejoin:round;stroke-miterlimit:10;" d="
				M619.935,297.587c-21.645,6.605-35.817,1.379-41.347,1.865c-4.463,0.392-8.755,3.264-17.204,1.782
				c-6.82-1.197-13.033-5.164-28.22-7.774c3.146-3.837,8.219-5.36,12.612-7.667c4.907-2.577,9.162-6.287,14.139-8.726
				c12.574-6.163,22.464-1.781,30.551-0.465c10.641,1.733,16.818-0.175,29.666,9.299
				C629.745,292.991,627.04,295.419,619.935,297.587z"/>
			<path style="fill:none;stroke:#89A16D;stroke-width:1.5;stroke-linecap:round;stroke-linejoin:round;stroke-miterlimit:10;" d="
				M606.029,329.856c-5.002,0.865-10.131,1.137-14.987,2.616c-5.713,1.74-10.979,5.127-16.924,5.701
				c-8.493,0.821-15.572-4.117-34.856-3.864c16.477-15.284,20.005-18.874,25.534-22.221c16.08-9.734,35.011-5.993,42.035-7.082
				c4.677-0.725,7.958-2.793,15.948,0.708c3.646,1.597,13.458,7.885,12.838,10.416C635.279,317.518,621.894,327.114,606.029,329.856
				z"/>
			<path style="fill:none;stroke:#89A16D;stroke-width:1.5;stroke-linecap:round;stroke-linejoin:round;stroke-miterlimit:10;" d="
				M665.526,291.464c12.532-18.63,28.189-16.331,39.864-22.011c12.866-6.258,14.036-13.787,36.887-7.051
				c-22.177,5.256-37.613,34.351-67.715,47.17c-13.445,5.725-8.946,5.744-12.919,8.176
				C654.075,322.382,658.538,301.852,665.526,291.464z"/>
			<path style="fill:none;stroke:#89A16D;stroke-width:1.5;stroke-linecap:round;stroke-linejoin:round;stroke-miterlimit:10;" d="
				M624.21,353.797c-8.703,2.18-17.98,1.948-26.38,5.1c-13.346,5.008-6.497,4.965-35.906,3.635
				c5.246-4.091,7.776-10.84,12.726-15.285c5.956-5.348,14.402-6.581,21.924-9.319c9.846-3.584,19.936-11.068,36.911-7.736
				c4.263,0.837,15.621,5.26,12.253,11.503C643.105,346.575,630.281,352.277,624.21,353.797z"/>
			<path style="fill:none;stroke:#89A16D;stroke-width:1.5;stroke-linecap:round;stroke-linejoin:round;stroke-miterlimit:10;" d="
				M670.224,325.039c6.444-19.163,23.747-20.294,34.877-26.845c12.619-7.427,22.09-23.987,42.207-19.84
				c-10.717,12.444-11.739,30.06-33.65,40.724c-4.587,2.232-9.548,3.757-13.784,6.6c-6.987,4.688-11.352,12.513-18.212,17.385
				C667.459,353.146,666.562,335.93,670.224,325.039z"/>
			<path style="fill:none;stroke:#89A16D;stroke-width:1.5;stroke-linecap:round;stroke-linejoin:round;stroke-miterlimit:10;" d="
				M647.109,384.661c-12.872,10.556-14.725,6.847-27.091,9.325c-20.808,4.169-25.281,20.859-51.835,10.234
				c4.348-3.078,8.415-6.552,12.135-10.365c23.297-23.879,15.147-15.409,33.707-23.797c5.632-2.545,14.131-9.099,28.611-5.852
				c3.958,0.888,17.749,5.284,14.263,10.743C654.437,378.806,650.604,381.795,647.109,384.661z"/>
			<path style="fill:none;stroke:#89A16D;stroke-width:1.5;stroke-linecap:round;stroke-linejoin:round;stroke-miterlimit:10;" d="
				M719.35,326.535c2.996-1.024,6.148-1.65,8.972-3.082c4.677-2.37,8.068-6.745,12.659-9.279c10.57-5.833,24.69-0.645,35.246-6.503
				c-11.44,12.337-16.649,29.476-28.194,41.715c-8.337,8.837-19.415,14.522-28.85,22.175c-9.8,7.95-22.874,20.443-30.938,10.198
				C678.886,369.87,696.258,334.424,719.35,326.535z"/>
			<path style="fill:none;stroke:#89A16D;stroke-width:1.5;stroke-linecap:round;stroke-linejoin:round;stroke-miterlimit:10;" d="
				M646.799,418.996c-15.622,3.311-16.302,11.782-23.808,20.269c-6.832,7.726-18.203,12.302-26.321,22.897
				c-9.514,12.416-10.72,29.185-17.234,43.405c18.433,2.28,40.188-21.592,43.897-24.39c10.567-7.973,25.398-9.412,39.164-29.169
				c3.562-5.112,6.383-10.742,10.321-15.57c2.196-2.692,4.815-5.285,5.59-8.672c1.674-7.317-5.431-7.547-10.256-8.621
				C661.146,417.586,653.823,417.508,646.799,418.996z"/>
			<path style="fill:none;stroke:#89A16D;stroke-width:1.5;stroke-linecap:round;stroke-linejoin:round;stroke-miterlimit:10;" d="
				M658.626,473.037c-7.055,2.263-44.306,19.469-57.526,40.148c-2.526,3.951-4.071,7.266-10.802,20.875
				c5.763,3.159,26.039-2.665,32.354-4.551c30.038-8.97,24.963-21.784,36.802-31.432c7.973-6.497,32.609-9.462,30.49-21.341
				C688.646,469.457,668.057,470.012,658.626,473.037z"/>
			<path style="fill:none;stroke:#89A16D;stroke-width:1.5;stroke-linecap:round;stroke-linejoin:round;stroke-miterlimit:10;" d="
				M723.765,397.837c15.491-16.857,29.847-14.13,39.677-18.118c15.935-6.464,11.56-10.586,33.676-1.297
				c13.734,5.768,16.223,2.174,16.984,3.052c0.546,0.629-1.825,2.639-2.441,3.222c-6.532,6.174-3.597,4.853-7.615,11.289
				c-17.015,27.248-44.192,22.846-54.958,26.288c-10.934,3.495-19.941,14.074-31.951,14.099
				C700.321,436.406,713.969,408.497,723.765,397.837z"/>
			<path style="fill:none;stroke:#89A16D;stroke-width:1.5;stroke-linecap:round;stroke-linejoin:round;stroke-miterlimit:10;" d="
				M658.381,201.153c-55.266,74.389-24.26,70.236,25.904,207.32c11.407,31.171,22.952,63.047,23.661,96.231"/>
			<path style="fill:none;stroke:#89A16D;stroke-width:1.5;stroke-linecap:round;stroke-linejoin:round;stroke-miterlimit:10;" d="
				M582.417,218.568c23.328,8.628,30.513,35.44,47.152,52.167"/>
			<path style="fill:none;stroke:#89A16D;stroke-width:1.5;stroke-linecap:round;stroke-linejoin:round;stroke-miterlimit:10;" d="
				M565.211,263.888c23.521-1.299,47.35,4.485,66.721,17.89"/>
			<path style="fill:none;stroke:#89A16D;stroke-width:1.5;stroke-linecap:round;stroke-linejoin:round;stroke-miterlimit:10;" d="
				M548.141,289.345c27.24,5.998,54.034-15.297,90.439,10.783"/>
			<path style="fill:none;stroke:#89A16D;stroke-width:1.5;stroke-linecap:round;stroke-linejoin:round;stroke-miterlimit:10;" d="
				M717.768,222.178c-23.059,14.577-74.026,48.603-72.507,92.882"/>
			<path style="fill:none;stroke:#89A16D;stroke-width:1.5;stroke-linecap:round;stroke-linejoin:round;stroke-miterlimit:10;" d="
				M553.163,328.264c46.944-0.457,78.39-21.351,94.053-8.552"/>
			<path style="fill:none;stroke:#89A16D;stroke-width:1.5;stroke-linecap:round;stroke-linejoin:round;stroke-miterlimit:10;" d="
				M725.266,266.258c-10.267,5.092-18.333,13.659-27.737,20.208c-13.351,9.298-44.238,24.507-43.505,48.256"/>
			<path style="fill:none;stroke:#89A16D;stroke-width:1.5;stroke-linecap:round;stroke-linejoin:round;stroke-miterlimit:10;" d="
				M576.21,354.323c13.411,1.01,70.896-25.577,81.767-10.763"/>
			<path style="fill:none;stroke:#89A16D;stroke-width:1.5;stroke-linecap:round;stroke-linejoin:round;stroke-miterlimit:10;" d="
				M738.51,285.792c-24.006,17.231-69.775,37.541-72.562,76.151"/>
			<path style="fill:none;stroke:#89A16D;stroke-width:1.5;stroke-linecap:round;stroke-linejoin:round;stroke-miterlimit:10;" d="
				M584.564,398.122c25.23-6.302,69.012-37.78,87.939-20.307"/>
			<path style="fill:none;stroke:#89A16D;stroke-width:1.5;stroke-linecap:round;stroke-linejoin:round;stroke-miterlimit:10;" d="
				M764.631,316.86c-33.687,33.989-85.726,59.726-82.014,87.087"/>
			<path style="fill:none;stroke:#89A16D;stroke-width:1.5;stroke-linecap:round;stroke-linejoin:round;stroke-miterlimit:10;" d="
				M592.786,491.242c22.689-12.494,32.591-27.05,42.554-37.652c6.378-6.787,32.918-31.297,41.982-33.513
				c4.485-1.097,10.453,0.295,12.724,4.316"/>
			<path style="fill:none;stroke:#89A16D;stroke-width:1.5;stroke-linecap:round;stroke-linejoin:round;stroke-miterlimit:10;" d="
				M799.122,390.564c-31.372,6.107-64.168,13.72-86.616,37.433c-7.109,7.51-13.527,17.546-12.383,27.824"/>
			<path style="fill:none;stroke:#89A16D;stroke-width:1.5;stroke-linecap:round;stroke-linejoin:round;stroke-miterlimit:10;" d="
				M604.939,522.606c36.616-6.699,75.885-64.708,100.026-45.906"/>
			<path style="fill:none;stroke:#89A16D;stroke-width:1.5;stroke-linecap:round;stroke-linejoin:round;stroke-miterlimit:10;" d="
				M587.66,226.536c2.069,0.758,6.44,0.235,11.489,3.32c-1.406-3.247-4.088-7.316-6.151-10.191"/>
			<path style="fill:none;stroke:#89A16D;stroke-width:1.5;stroke-linecap:round;stroke-linejoin:round;stroke-miterlimit:10;" d="
				M592.93,234.246c6.105,3.072,9.172,1.995,15.224,6.867c-1.128-3.561-3.124-8.298-4.252-11.859"/>
			<path style="fill:none;stroke:#89A16D;stroke-width:1.5;stroke-linecap:round;stroke-linejoin:round;stroke-miterlimit:10;" d="
				M601.312,245.11c14.65,0.815,16.172,15.889,9.779-5.58"/>
			<path style="fill:none;stroke:#89A16D;stroke-width:1.5;stroke-linecap:round;stroke-linejoin:round;stroke-miterlimit:10;" d="
				M652.033,202.099c-2.554,4.429-3.609,9.271-4.491,14.307c3.545-1.796,8.606-2.246,10.856-5.971"/>
			<path style="fill:none;stroke:#89A16D;stroke-width:1.5;stroke-linecap:round;stroke-linejoin:round;stroke-miterlimit:10;" d="
				M639.794,213.158c-3.193,6.093-1.603,13.054-2.124,19.58c1.235-1.747,10.289-3.019,15.218-13.716"/>
			<path style="fill:none;stroke:#89A16D;stroke-width:1.5;stroke-linecap:round;stroke-linejoin:round;stroke-miterlimit:10;" d="
				M629.956,231.951c-1.865,5.979-0.833,13.429,0.453,19.559c3.321-3.553,5.236-9.337,8.277-13.099"/>
			<path style="fill:none;stroke:#89A16D;stroke-width:1.5;stroke-linecap:round;stroke-linejoin:round;stroke-miterlimit:10;" d="
				M570.728,268.003c5.186-0.73,10.381-2.461,15.018-3.43c-4.407-2.842-10.801-5.01-16.005-5.655"/>
			<path style="fill:none;stroke:#89A16D;stroke-width:1.5;stroke-linecap:round;stroke-linejoin:round;stroke-miterlimit:10;" d="
				M586.007,269.411c3.638,0.789,8.025-1.203,12.145-2.587c0.181-1.28-8.063-8.424-16.05-9.127"/>
			<path style="fill:none;stroke:#89A16D;stroke-width:1.5;stroke-linecap:round;stroke-linejoin:round;stroke-miterlimit:10;" d="
				M598.808,273.177c6.794-0.028,10.391-1.198,14.718-1.377c-4.025-4.964-10.743-10.016-16.229-13.294"/>
			<path style="fill:none;stroke:#89A16D;stroke-width:1.5;stroke-linecap:round;stroke-linejoin:round;stroke-miterlimit:10;" d="
				M556.67,296.785c5.935,0.207,8.301-0.669,19.089-7.795c-4.637-2.241-11.899-3.423-17.024-3.938"/>
			<path style="fill:none;stroke:#89A16D;stroke-width:1.5;stroke-linecap:round;stroke-linejoin:round;stroke-miterlimit:10;" d="
				M577.532,297.219c7.497-1.889,9.328-6.708,17.582-10.356c-5.887-3.602-15.011-7.15-22.112-6.53"/>
			<path style="fill:none;stroke:#89A16D;stroke-width:1.5;stroke-linecap:round;stroke-linejoin:round;stroke-miterlimit:10;" d="
				M593.365,297.178c7.7-0.1,15.57-7.461,25.089-7.408c-4.389-3.755-15.546-8.821-21.296-9.366"/>
			<path style="fill:none;stroke:#89A16D;stroke-width:1.5;stroke-linecap:round;stroke-linejoin:round;stroke-miterlimit:10;" d="
				M561.141,333.774c10.347,1.008,15.493-5.646,21.92-8.405c-3.549-1.435-17.801-7.371-21.679-3.437"/>
			<path style="fill:none;stroke:#89A16D;stroke-width:1.5;stroke-linecap:round;stroke-linejoin:round;stroke-miterlimit:10;" d="
				M583.481,332.538c5.542-1.356,9.393-6.997,14.152-10.144c-7.102-3.249-15.55-8.906-24.209-7.745"/>
			<path style="fill:none;stroke:#89A16D;stroke-width:1.5;stroke-linecap:round;stroke-linejoin:round;stroke-miterlimit:10;" d="
				M602.089,327.956c5.434-0.489,8.064-7.339,12.714-9.604c-7.98-3.216-14.851-6.908-22.705-8.206"/>
			<path style="fill:none;stroke:#89A16D;stroke-width:1.5;stroke-linecap:round;stroke-linejoin:round;stroke-miterlimit:10;" d="
				M617.605,323.73c4.075-0.884,6.113-5.883,9.687-7.721c-4.29-4.168-10.526-6.984-16.415-8.028"/>
			<path style="fill:none;stroke:#89A16D;stroke-width:1.5;stroke-linecap:round;stroke-linejoin:round;stroke-miterlimit:10;" d="
				M582.383,360.268c6.077-0.528,11.181-5.854,14.618-10.409c-3.365-1.54-14.122-4.322-15.884-1.196"/>
			<path style="fill:none;stroke:#89A16D;stroke-width:1.5;stroke-linecap:round;stroke-linejoin:round;stroke-miterlimit:10;" d="
				M598.785,355.315c4.221-0.454,8.009-3.78,13.76-10.073c-3.751-2.317-12.988-5.004-16.694-2.993"/>
			<path style="fill:none;stroke:#89A16D;stroke-width:1.5;stroke-linecap:round;stroke-linejoin:round;stroke-miterlimit:10;" d="
				M613.669,353.444c5.26-2.51,6.574-7.227,11.953-11.647c-3.571-3.046-9.873-4.694-14.566-4.604"/>
			<path style="fill:none;stroke:#89A16D;stroke-width:1.5;stroke-linecap:round;stroke-linejoin:round;stroke-miterlimit:10;" d="
				M627.846,349.389c5.219-0.688,7.282-7.556,11.57-10.003c-4.304-3.226-10.432-5.085-15.794-5.516"/>
			<path style="fill:none;stroke:#89A16D;stroke-width:1.5;stroke-linecap:round;stroke-linejoin:round;stroke-miterlimit:10;" d="
				M586.007,404.565c4.248-1.555,13.904-9.441,16.726-13.155c-4.075-2.177-11.258-2.119-15.728-0.955"/>
			<path style="fill:none;stroke:#89A16D;stroke-width:1.5;stroke-linecap:round;stroke-linejoin:round;stroke-miterlimit:10;" d="
				M603.291,397.969c5.376-3.251,9.5-8.973,13.193-12.751c-5.161-0.458-13.665-4.059-18.64-0.967"/>
			<path style="fill:none;stroke:#89A16D;stroke-width:1.5;stroke-linecap:round;stroke-linejoin:round;stroke-miterlimit:10;" d="
				M619.057,391.362c2.982-1.764,6.714-3.177,10.903-11.938c-4.892-3.345-14.366-3.717-20.02-1.943"/>
			<path style="fill:none;stroke:#89A16D;stroke-width:1.5;stroke-linecap:round;stroke-linejoin:round;stroke-miterlimit:10;" d="
				M631.141,388.798c4.364-1.455,10.079-10.834,13.112-14.235c-5.466-3.632-14.165-5.962-20.555-4.466"/>
			<path style="fill:none;stroke:#89A16D;stroke-width:1.5;stroke-linecap:round;stroke-linejoin:round;stroke-miterlimit:10;" d="
				M599.613,496.109c7.564-4.864,8.765-14.216,10.289-16.344c-6.706-1.238-14.813-0.722-19.544,4.225"/>
			<path style="fill:none;stroke:#89A16D;stroke-width:1.5;stroke-linecap:round;stroke-linejoin:round;stroke-miterlimit:10;" d="
				M617.284,483.762c6.101-6.651,2.786-12.009,6.239-16.939c-9.124,0.105-17.116-3.694-23.747,2.143"/>
			<path style="fill:none;stroke:#89A16D;stroke-width:1.5;stroke-linecap:round;stroke-linejoin:round;stroke-miterlimit:10;" d="
				M631.479,474.089c6.086-9.997,2.329-15.952,4.386-21.049c-8.733-0.882-18.237,1.163-26.02,5.219"/>
			<path style="fill:none;stroke:#89A16D;stroke-width:1.5;stroke-linecap:round;stroke-linejoin:round;stroke-miterlimit:10;" d="
				M644.072,464.699c8.423-9.822,3.44-18.548,5.101-24.232c-2.981,0.587-16.434-4.378-27.274,4.241"/>
			<path style="fill:none;stroke:#89A16D;stroke-width:1.5;stroke-linecap:round;stroke-linejoin:round;stroke-miterlimit:10;" d="
				M658.118,451.71c6.736-7.134,4.415-15.212,4.561-18.094c0.182-3.58,2.295-5.519,2.072-6.073
				c-0.245-0.606-10.46-5.239-25.225,2.068"/>
			<path style="fill:none;stroke:#89A16D;stroke-width:1.5;stroke-linecap:round;stroke-linejoin:round;stroke-miterlimit:10;" d="
				M609.334,530.171c5.24-0.513,14.439-12.378,17.586-16.619c-4.854-1.899-18.369-3.526-20.42,0.771"/>
			<path style="fill:none;stroke:#89A16D;stroke-width:1.5;stroke-linecap:round;stroke-linejoin:round;stroke-miterlimit:10;" d="
				M628.944,522.795c2.436-0.014,6.05-5.833,6.63-7.722c0.941-3.066,1.941-7.32,4.05-9.958c-6.595-3.352-15.884-6.625-22.643-2.131"
				/>
			<path style="fill:none;stroke:#89A16D;stroke-width:1.5;stroke-linecap:round;stroke-linejoin:round;stroke-miterlimit:10;" d="
				M644.268,513.376c4.859-4.664,2.244-9.251,8.762-18.295c-6.027-3.26-13.678-4.27-20.268-2.395"/>
			<path style="fill:none;stroke:#89A16D;stroke-width:1.5;stroke-linecap:round;stroke-linejoin:round;stroke-miterlimit:10;" d="
				M658.322,495.465c3.353-1.509,6.244-7.044,7.704-10.025c-4.019-3.681-12.157-6.471-17.201-4.686"/>
			<path style="fill:none;stroke:#89A16D;stroke-width:1.5;stroke-linecap:round;stroke-linejoin:round;stroke-miterlimit:10;" d="
				M671.572,489.997c2.867-1.98,3.301-6.862,8.066-13.068c1.613-2.101-12.335-2.662-14.993-2.823"/>
			<path style="fill:none;stroke:#89A16D;stroke-width:1.5;stroke-linecap:round;stroke-linejoin:round;stroke-miterlimit:10;" d="
				M705.734,224.134c-3.869,0.374-8.96,12.125-8.714,12.093c3.056-0.406,8.751,2.226,14.929-3.025"/>
			<path style="fill:none;stroke:#89A16D;stroke-width:1.5;stroke-linecap:round;stroke-linejoin:round;stroke-miterlimit:10;" d="
				M688.502,233.1c-6.762,3.844-7.624,12.156-9.94,18.282c4.284-1.286,11.15,0.507,18.554-6.529"/>
			<path style="fill:none;stroke:#89A16D;stroke-width:1.5;stroke-linecap:round;stroke-linejoin:round;stroke-miterlimit:10;" d="
				M670.096,248.223c-4.937,5.022-3.311,13.79-6.918,19.6c6.279-1.778,14.336-2.251,19.312-7.093"/>
			<path style="fill:none;stroke:#89A16D;stroke-width:1.5;stroke-linecap:round;stroke-linejoin:round;stroke-miterlimit:10;" d="
				M656.528,262.658c-3.135,6.701-4.509,14.216-3.95,21.593c2.678-1.023,9.136,0.306,12.644-6.178"/>
			<path style="fill:none;stroke:#89A16D;stroke-width:1.5;stroke-linecap:round;stroke-linejoin:round;stroke-miterlimit:10;" d="
				M718.015,265.327c-4.91,2.227-5.811,8.857-9.425,12.507c3.632,0.091,8.128-1.7,9.756-3.19"/>
			<path style="fill:none;stroke:#89A16D;stroke-width:1.5;stroke-linecap:round;stroke-linejoin:round;stroke-miterlimit:10;" d="
				M705.616,272.744c-10.598,5.116-8.361,10.807-13.122,17.047c5.147,0.605,10.348-0.908,12.846-4.399"/>
			<path style="fill:none;stroke:#89A16D;stroke-width:1.5;stroke-linecap:round;stroke-linejoin:round;stroke-miterlimit:10;" d="
				M690.069,280.522c-5.913-0.974-8.766,13.434-13.276,19.699c4.258,1.337,12.32,0.459,13.417-3.308"/>
			<path style="fill:none;stroke:#89A16D;stroke-width:1.5;stroke-linecap:round;stroke-linejoin:round;stroke-miterlimit:10;" d="
				M669.226,291.763c-3.651,3.597-3.282,11.761-3.042,17.37c0.071,1.658,7.496-2.312,9.838-3.691"/>
			<path style="fill:none;stroke:#89A16D;stroke-width:1.5;stroke-linecap:round;stroke-linejoin:round;stroke-miterlimit:10;" d="
				M731.922,283.416c-3.282-0.184-9.228,9.531-12.369,14.765c4.842,0.816,11.052,1.023,13.429-3.58"/>
			<path style="fill:none;stroke:#89A16D;stroke-width:1.5;stroke-linecap:round;stroke-linejoin:round;stroke-miterlimit:10;" d="
				M715.529,293.858c-7.081,2.35-10.643,10.939-13.934,16.363c7.079,0.452,15.607,0.529,21.121-4.51"/>
			<path style="fill:none;stroke:#89A16D;stroke-width:1.5;stroke-linecap:round;stroke-linejoin:round;stroke-miterlimit:10;" d="
				M695.048,306.051c-5.406,3.44-7.45,10.633-8.434,16.557c5.05-1.024,13.652-0.658,17.195-5.891"/>
			<path style="fill:none;stroke:#89A16D;stroke-width:1.5;stroke-linecap:round;stroke-linejoin:round;stroke-miterlimit:10;" d="
				M681.688,312.905c-5.622,4.296-5.905,13.859-7.258,24.282c5.329-0.727,10.543-2.759,13.234-7.364"/>
			<path style="fill:none;stroke:#89A16D;stroke-width:1.5;stroke-linecap:round;stroke-linejoin:round;stroke-miterlimit:10;" d="
				M757.629,316.64c-6.442,2.853-7.392,11.62-11.291,16.791c5.32,0.706,12.497-2.007,14.521-7.272"/>
			<path style="fill:none;stroke:#89A16D;stroke-width:1.5;stroke-linecap:round;stroke-linejoin:round;stroke-miterlimit:10;" d="
				M741.933,319.443c-12.806,5.303-7.843,19.879-13.431,28.29c-0.239,0.014,10.14,3.785,18.503-4.299"/>
			<path style="fill:none;stroke:#89A16D;stroke-width:1.5;stroke-linecap:round;stroke-linejoin:round;stroke-miterlimit:10;" d="
				M722.13,331.657c-6.996,2.842-11.9,28.551-13,31.627c6.388-1.854,16.316,1.161,20.456-5.46"/>
			<path style="fill:none;stroke:#89A16D;stroke-width:1.5;stroke-linecap:round;stroke-linejoin:round;stroke-miterlimit:10;" d="
				M704.003,344.538c-10.369,4.172-8.187,29.906-10.233,33.298c6.73,0.064,15.157-0.859,19.183-7.374"/>
			<path style="fill:none;stroke:#89A16D;stroke-width:1.5;stroke-linecap:round;stroke-linejoin:round;stroke-miterlimit:10;" d="
				M797.097,384.616c-9.416-2.659-12.235,6.535-17.856,10.139c6.002,3.249,16.366,9.113,19.522,3.099"/>
			<path style="fill:none;stroke:#89A16D;stroke-width:1.5;stroke-linecap:round;stroke-linejoin:round;stroke-miterlimit:10;" d="
				M779.626,380.218c-13.249-1.753-22.745,19.765-23.866,21.26c12.362-0.198,16.206,10.84,27.639,6.418"/>
			<path style="fill:none;stroke:#89A16D;stroke-width:1.5;stroke-linecap:round;stroke-linejoin:round;stroke-miterlimit:10;" d="
				M756.813,385.214c-16.593,3.084-12.009,16.231-20.105,24.562c14.477,3.183,17.606,5.137,20.135,2.27"/>
			<path style="fill:none;stroke:#89A16D;stroke-width:1.5;stroke-linecap:round;stroke-linejoin:round;stroke-miterlimit:10;" d="
				M732.768,397.302c-9.851,10.095-8.827,17.97-12.772,23.666c6.348,1.874,13.103,3.767,18.117-0.648"/>
		</g>
		<g style="clip-path:url(#SVGID_00000072273301483819866610000011961830811338390973_);">
			<path style="fill:none;stroke:#89A16D;stroke-width:1.5;stroke-linecap:round;stroke-linejoin:round;stroke-miterlimit:10;" d="
				M318.875,19.521c-0.821-5.571,0.252-11.397-1.361-16.793c-2.783-9.307-13.065-14.721-22.776-14.971
				c-10.767-0.277-74.563,13.779-68.374,60.485c29.856-37.188,59.194-18.543,56.255-8.37c-2.181,7.549-25.324,10.285-33.153,10.624
				c-7.25,0.314-14.918-0.112-21.294,3.353c-8.591,4.669-12.38,15.429-11.626,25.178c0.754,9.749,5.178,18.784,9.524,27.543
				c1.999-22.755,31.987-29.003,59.917-41.026c7.023-3.023,14.277-2.789,11.861,1.472c-6.228,10.983-100.276,34.407-38.86,77.591
				c4.433-21.274,5.212-19.095,19.152-32.509c2.107-2.027,23.453-26.478,29.066-20.521c9.799,10.399-50.892,44.942-37.33,70.62
				c2.087,3.951,11.529,13.117,17.996,14.192c-2.635-27.892,18.621-51.013,22.851-47.831c1.923,1.447,2.28,8.756-3.948,18.08
				c-29.382,43.993,14.808,25.096,18.934,43.892c-0.862-3.928,15.863-6.439,18.018-18.117c1.878-10.175-3.231-22.131-6.823-31.319
				c-2.855-7.301,1.706-9.664,5.226-7.223c4.259,2.954,13.633,23.469,8.353,45.384c13.475-14.148,25.221-32.278,14.65-48.726
				c-4.097-6.375-12.213-10.967-23.366-26.862c-7.263-10.355,7.109-6.648,11.442-2.011c11.923,12.758,18.971,29.964,19.424,47.42
				c12.809-10.765,27.702-25.354,19.765-42.01c-6.917-14.516-51.445-40.702-35.571-42.684c4.868-0.608,38.805,13.519,40.491,41.034
				c2.544-9.323,9.143-17.072,12.151-26.256c5.48-16.734-3.213-44.476-7.624-51.33c-10.426-16.201-24.237-1.726-35.223-2.044
				c-8.158-0.236,3.319-17.519,28.481-7.225c-17.496-18.522-37.576-38.27-52.581-22.343c-6.531,6.933-6.723,17.101-9.202,25.785
				C328.808,37.802,320.108,27.888,318.875,19.521z"/>
			<path style="fill:none;stroke:#89A16D;stroke-width:1.5;stroke-linecap:round;stroke-linejoin:round;stroke-miterlimit:10;" d="
				M327.647,179.083c-6.548-49.096,0.722-53.637,0.232-91.772c-1.169-91.046-3.661-95.678,5.67-110.392"/>
			<path style="fill:none;stroke:#89A16D;stroke-width:1.5;stroke-linecap:round;stroke-linejoin:round;stroke-miterlimit:10;" d="
				M309.112,170.943c0.284-13.558,5.954-24.735,15.912-33.941"/>
			<path style="fill:none;stroke:#89A16D;stroke-width:1.5;stroke-linecap:round;stroke-linejoin:round;stroke-miterlimit:10;" d="
				M335.831,173.391c-0.31-9.114-4.11-14.992-10.736-21.257"/>
			<path style="fill:none;stroke:#89A16D;stroke-width:1.5;stroke-linecap:round;stroke-linejoin:round;stroke-miterlimit:10;" d="
				M360.179,153.335c-1.168-15.904-19.101-44.617-32.454-52.724"/>
			<path style="fill:none;stroke:#89A16D;stroke-width:1.5;stroke-linecap:round;stroke-linejoin:round;stroke-miterlimit:10;" d="
				M252.085,123.231c11.88-23.455,40.944-49.945,75.339-58.694"/>
			<path style="fill:none;stroke:#89A16D;stroke-width:1.5;stroke-linecap:round;stroke-linejoin:round;stroke-miterlimit:10;" d="
				M280.805,156.078c7.166-25.471,24.105-49.604,47.087-62.717"/>
			<path style="fill:none;stroke:#89A16D;stroke-width:1.5;stroke-linecap:round;stroke-linejoin:round;stroke-miterlimit:10;" d="
				M385.321,127.581c-4.47-29.516-28.205-51.123-57.428-57.218"/>
			<path style="fill:none;stroke:#89A16D;stroke-width:1.5;stroke-linecap:round;stroke-linejoin:round;stroke-miterlimit:10;" d="
				M232.516,76.832c36.356-32.754,66.668-18.636,94.589-35.542"/>
			<path style="fill:none;stroke:#89A16D;stroke-width:1.5;stroke-linecap:round;stroke-linejoin:round;stroke-miterlimit:10;" d="
				M256.933,15.029c28.392-13.715,46.324,21.163,70.121,23.611"/>
			<path style="fill:none;stroke:#89A16D;stroke-width:1.5;stroke-linecap:round;stroke-linejoin:round;stroke-miterlimit:10;" d="
				M402.553,72.359c-9.693-21.004-33.945-13.971-75.129-27.243"/>
			<path style="fill:none;stroke:#89A16D;stroke-width:1.5;stroke-linecap:round;stroke-linejoin:round;stroke-miterlimit:10;" d="
				M371.96,4.714c-20.2,4.465-12.443,23.945-44.828,29.332"/>
			<path style="fill:none;stroke:#89A16D;stroke-width:1.5;stroke-linecap:round;stroke-linejoin:round;stroke-miterlimit:10;" d="
				M287.058-0.036c24.61,11.103,21.764,31.245,40.074,34.082"/>
			<path style="fill:none;stroke:#89A16D;stroke-width:1.5;stroke-linecap:round;stroke-linejoin:round;stroke-miterlimit:10;" d="
				M349.971,41.067c-5.742-3.312-1.278-12.544,11.658-8.043C375.685,37.915,370.664,53.004,349.971,41.067z"/>
			<path style="fill:none;stroke:#89A16D;stroke-width:1.5;stroke-linecap:round;stroke-linejoin:round;stroke-miterlimit:10;" d="
				M313.821,85.624c-7.295,0.515-3.628-6.169,0.27-8.098C324.74,72.254,322.067,85.043,313.821,85.624z"/>
			<path style="fill:none;stroke:#89A16D;stroke-width:1.5;stroke-linecap:round;stroke-linejoin:round;stroke-miterlimit:10;" d="
				M308.848,56.624c-1.242,2.304-0.442,6.589,4.333,5.307c3.552-0.954,9.523-4.428,9.199-8.106
				C321.74,46.564,310.445,53.662,308.848,56.624z"/>
			<path style="fill:none;stroke:#89A16D;stroke-width:1.5;stroke-linecap:round;stroke-linejoin:round;stroke-miterlimit:10;" d="
				M300.688,43.923c-4.749-0.079-5.665-3.893-2.835-6.026c1.855-1.398,6.971-2.18,9.245-0.92
				C313.541,40.548,303.571,43.971,300.688,43.923z"/>
			<path style="fill:none;stroke:#89A16D;stroke-width:1.5;stroke-linecap:round;stroke-linejoin:round;stroke-miterlimit:10;" d="
				M343.165,66.281c2.594,0.089,0.436-9.49-5.387-6.827C331.841,62.17,339.889,66.168,343.165,66.281z"/>
			<path style="fill:none;stroke:#89A16D;stroke-width:1.5;stroke-linecap:round;stroke-linejoin:round;stroke-miterlimit:10;" d="
				M334.912,85.428c-0.811-3.753,3.337-6.74,7.622-2.132C345.68,86.678,336.486,92.705,334.912,85.428z"/>
			<path style="fill:none;stroke:#89A16D;stroke-width:1.5;stroke-linecap:round;stroke-linejoin:round;stroke-miterlimit:10;" d="
				M317.778,108.522c7.162-2.557,3.241,13.257-2.755,10.448C312.011,117.558,313.088,110.197,317.778,108.522z"/>
			<path style="fill:none;stroke:#89A16D;stroke-width:1.5;stroke-linecap:round;stroke-linejoin:round;stroke-miterlimit:10;" d="
				M337.733,119.547c6.913,10.636-9.095,8.931-6.521-0.447C332.008,116.202,335.153,115.576,337.733,119.547z"/>
		</g>
		
			<path style="opacity:0.4;clip-path:url(#SVGID_00000072273301483819866610000011961830811338390973_);fill:none;stroke:#89A16D;stroke-width:3;stroke-linecap:round;stroke-linejoin:round;stroke-miterlimit:10;" d="
			M491.795-99.849C463.581-67.232,435.467-32.556,423.92,8.995c-25.848,93.011,52.607,152.933,97.13,120.76
			c25.192-18.204,23.581-57.058,42.992-81.332c18.312-22.9,50.42-27.733,78.902-34.699c23.186-5.671,46.319-13.857,70.163-12.766
			c63.334,2.899,78.776,69.769,16.751,102.097c-31.153,16.238-82.738,22.885-92.118,44.731c-6.35,14.789,7.741,31.588,23.407,35.276
			c29.398,6.92,69.385-18.764,93.217,5.557"/>
		
			<path style="opacity:0.4;clip-path:url(#SVGID_00000072273301483819866610000011961830811338390973_);fill:none;stroke:#89A16D;stroke-width:3;stroke-linecap:round;stroke-linejoin:round;stroke-miterlimit:10;" d="
			M772.781,163.55c-23.352-11.05-52.086-9.894-74.475,2.998c6.984-23.471,37.815-27.932,57.362-42.683
			c28.183-21.268,30.379-62.037,30.036-97.342c-0.153-15.742-0.525-32.313-8.532-45.868
			C753.585-59.276,667.12-55.884,622.008-46.601c-62.432,12.847-62.115,41.82-74.859,71.465
			c-9.894,23.014-44.565,66.818-65.838,55.204c-23.687-12.933-7.336-113.25,60.775-167.237"/>
		
			<path style="opacity:0.4;clip-path:url(#SVGID_00000072273301483819866610000011961830811338390973_);fill:none;stroke:#89A16D;stroke-width:3;stroke-linecap:round;stroke-linejoin:round;stroke-miterlimit:10;" d="
			M-40.094,169.835c27.596-22.146,57.691-42.656,92.045-51.13c104.36-25.74,168.169,84.877,70.503,110.206
			c-17.247,4.473-35.562,7.001-50.429,16.821c-26.123,17.257-34.005,51.124-43.96,80.808c-9.955,29.684-29.886,62.173-61.169,63.433
			"/>
		
			<path style="opacity:0.4;clip-path:url(#SVGID_00000072273301483819866610000011961830811338390973_);fill:none;stroke:#89A16D;stroke-width:3;stroke-linecap:round;stroke-linejoin:round;stroke-miterlimit:10;" d="
			M-27.133,194.424c56.303-70.894,127.221-37.853,126.178-12.191c-0.487,11.985-13.751,18.34-23.592,25.199
			C29.791,239.256,34.085,329.267-26.477,338.959"/>
	</g>
</g>
</svg>
